<svg xmlns="http://www.w3.org/2000/svg" width="512" height="512" viewBox="0 0 24 24"><path d="M10.41 11.21V3.616c0-.43.167-.84.466-1.144A1.578 1.578 0 0 1 12 2c.422 0 .826.17 1.125.473.298.304.466.715.466 1.144v7.586l2.195-2.282a1.49 1.49 0 0 1 1.05-.455 1.47 1.47 0 0 1 1.06.434l.022.021c.284.294.443.689.443 1.1 0 .412-.16.807-.443 1.1l-4.81 4.972a1.496 1.496 0 0 1-1.069.454h-.084a1.47 1.47 0 0 1-1.066-.454L6.076 11.12a1.586 1.586 0 0 1-.44-1.098c0-.41.158-.805.44-1.098a1.49 1.49 0 0 1 1.05-.457 1.47 1.47 0 0 1 1.06.432l.025.025 2.199 2.284Z"/><path d="M20.41 14.729a1.59 1.59 0 0 0-1.592 1.591v1.613a.886.886 0 0 1-.884.884H6.07a.892.892 0 0 1-.89-.884V16.32a1.591 1.591 0 0 0-3.181 0v1.618A4.087 4.087 0 0 0 6.066 22h11.868A4.07 4.07 0 0 0 22 17.931V16.32a1.59 1.59 0 0 0-1.59-1.591Z"/></svg>